{
    "asset" : {
        "generator" : "Khronos glTF Blender I/O v1.6.16",
        "version" : "2.0"
    },
    "scene" : 0,
    "scenes" : [
        {
            "name" : "Scene",
            "nodes" : [
                0
            ]
        }
    ],
    "nodes" : [
        {
            "mesh" : 0,
            "name" : "Object_10.112",
            "rotation" : [
                0.15899892151355743,
                0.525514543056488,
                -0.1161118596792221,
                0.8276906609535217
            ],
            "scale" : [
                2.85127329826355,
                2.85127329826355,
                2.85127329826355
            ],
            "translation" : [
                6.259637832641602,
                0.18080326914787292,
                0.13153338432312012
            ]
        }
    ],
    "materials" : [
        {
            "doubleSided" : true,
            "name" : "Material.001",
            "pbrMetallicRoughness" : {
                "baseColorFactor" : [
                    0.25979867577552795,
                    0.17241229116916656,
                    0.0670182928442955,
                    1
                ],
                "metallicFactor" : 0,
                "roughnessFactor" : 0.9852941036224365
            }
        }
    ],
    "meshes" : [
        {
            "name" : "Object_2.112",
            "primitives" : [
                {
                    "attributes" : {
                        "POSITION" : 0,
                        "NORMAL" : 1,
                        "TEXCOORD_0" : 2,
                        "TEXCOORD_1" : 3
                    },
                    "indices" : 4,
                    "material" : 0
                }
            ]
        }
    ],
    "accessors" : [
        {
            "bufferView" : 0,
            "componentType" : 5126,
            "count" : 2877,
            "max" : [
                0.09339528530836105,
                0.05838226526975632,
                0.13792778551578522
            ],
            "min" : [
                -0.09115874022245407,
                -0.11303208768367767,
                -0.12068532407283783
            ],
            "type" : "VEC3"
        },
        {
            "bufferView" : 1,
            "componentType" : 5126,
            "count" : 2877,
            "type" : "VEC3"
        },
        {
            "bufferView" : 2,
            "componentType" : 5126,
            "count" : 2877,
            "type" : "VEC2"
        },
        {
            "bufferView" : 3,
            "componentType" : 5126,
            "count" : 2877,
            "type" : "VEC2"
        },
        {
            "bufferView" : 4,
            "componentType" : 5123,
            "count" : 14247,
            "type" : "SCALAR"
        }
    ],
    "bufferViews" : [
        {
            "buffer" : 0,
            "byteLength" : 34524,
            "byteOffset" : 0
        },
        {
            "buffer" : 0,
            "byteLength" : 34524,
            "byteOffset" : 34524
        },
        {
            "buffer" : 0,
            "byteLength" : 23016,
            "byteOffset" : 69048
        },
        {
            "buffer" : 0,
            "byteLength" : 23016,
            "byteOffset" : 92064
        },
        {
            "buffer" : 0,
            "byteLength" : 28494,
            "byteOffset" : 115080
        }
    ],
    "buffers" : [
        {
            "byteLength" : 143576,
            "uri" : "data:application/octet-stream;base64,"
        }
    ]
}
