{
    "asset" : {
        "generator" : "Khronos glTF Blender I/O v1.6.16",
        "version" : "2.0"
    },
    "scene" : 0,
    "scenes" : [
        {
            "name" : "Scene",
            "nodes" : [
                0
            ]
        }
    ],
    "nodes" : [
        {
            "mesh" : 0,
            "name" : "Cube.002",
            "rotation" : [
                0,
                -0.2991500198841095,
                0,
                0.954206109046936
            ],
            "scale" : [
                0.44686686992645264,
                0.2614506185054779,
                0.02635979652404785
            ],
            "translation" : [
                -2.1189799308776855,
                0.28622230887413025,
                1.1758334636688232
            ]
        }
    ],
    "materials" : [
        {
            "doubleSided" : true,
            "name" : "Material.017",
            "pbrMetallicRoughness" : {
                "baseColorTexture" : {
                    "index" : 0
                },
                "metallicFactor" : 0,
                "roughnessFactor" : 0.5
            }
        },
        {
            "doubleSided" : true,
            "name" : "Material.021",
            "pbrMetallicRoughness" : {
                "baseColorFactor" : [
                    0.09462597221136093,
                    0.028198543936014175,
                    0.013785524293780327,
                    1
                ],
                "metallicFactor" : 0,
                "roughnessFactor" : 0.5
            }
        },
        {
            "doubleSided" : true,
            "name" : "Material.019",
            "pbrMetallicRoughness" : {
                "baseColorFactor" : [
                    0.01738787069916725,
                    0.004581743385642767,
                    0.002872954588383436,
                    1
                ],
                "metallicFactor" : 0,
                "roughnessFactor" : 0.5
            }
        },
        {
            "doubleSided" : true,
            "name" : "Material.022",
            "pbrMetallicRoughness" : {
                "baseColorTexture" : {
                    "index" : 1
                },
                "metallicFactor" : 0,
                "roughnessFactor" : 0.5
            }
        },
        {
            "doubleSided" : true,
            "name" : "Material.018",
            "pbrMetallicRoughness" : {
                "baseColorFactor" : [
                    0.3890967071056366,
                    0.3890967071056366,
                    0.3890967071056366,
                    1
                ],
                "metallicFactor" : 0,
                "roughnessFactor" : 0.800000011920929
            }
        },
        {
            "doubleSided" : true,
            "name" : "text",
            "pbrMetallicRoughness" : {
                "metallicFactor" : 0,
                "roughnessFactor" : 0.5
            }
        }
    ],
    "meshes" : [
        {
            "name" : "Cube.004",
            "primitives" : [
                {
                    "attributes" : {
                        "POSITION" : 0,
                        "NORMAL" : 1,
                        "TEXCOORD_0" : 2
                    },
                    "indices" : 3,
                    "material" : 0
                },
                {
                    "attributes" : {
                        "POSITION" : 4,
                        "NORMAL" : 5,
                        "TEXCOORD_0" : 6
                    },
                    "indices" : 7,
                    "material" : 1
                },
                {
                    "attributes" : {
                        "POSITION" : 8,
                        "NORMAL" : 9,
                        "TEXCOORD_0" : 10
                    },
                    "indices" : 11,
                    "material" : 2
                },
                {
                    "attributes" : {
                        "POSITION" : 12,
                        "NORMAL" : 13,
                        "TEXCOORD_0" : 14
                    },
                    "indices" : 15,
                    "material" : 3
                },
                {
                    "attributes" : {
                        "POSITION" : 16,
                        "NORMAL" : 17,
                        "TEXCOORD_0" : 18
                    },
                    "indices" : 19,
                    "material" : 4
                },
                {
                    "attributes" : {
                        "POSITION" : 20,
                        "NORMAL" : 21,
                        "TEXCOORD_0" : 22
                    },
                    "indices" : 23,
                    "material" : 5
                }
            ]
        }
    ],
    "textures" : [
        {
            "sampler" : 0,
            "source" : 0
        },
        {
            "sampler" : 0,
            "source" : 1
        }
    ],
    "images" : [
        {
            "bufferView" : 4,
            "mimeType" : "image/jpeg",
            "name" : "screen-shot-2020-05-13-at-11.44.42-am-"
        },
        {
            "bufferView" : 17,
            "mimeType" : "image/jpeg",
            "name" : "istockphoto-531332878-612x612"
        }
    ],
    "accessors" : [
        {
            "bufferView" : 0,
            "componentType" : 5126,
            "count" : 24,
            "max" : [
                1,
                0.6836236119270325,
                1
            ],
            "min" : [
                -1,
                -1,
                -1
            ],
            "type" : "VEC3"
        },
        {
            "bufferView" : 1,
            "componentType" : 5126,
            "count" : 24,
            "type" : "VEC3"
        },
        {
            "bufferView" : 2,
            "componentType" : 5126,
            "count" : 24,
            "type" : "VEC2"
        },
        {
            "bufferView" : 3,
            "componentType" : 5123,
            "count" : 36,
            "type" : "SCALAR"
        },
        {
            "bufferView" : 5,
            "componentType" : 5126,
            "count" : 4,
            "max" : [
                0.9284458756446838,
                3.4876341819763184,
                -12.140729904174805
            ],
            "min" : [
                -0.9284363985061646,
                2.699575424194336,
                -12.262713432312012
            ],
            "type" : "VEC3"
        },
        {
            "bufferView" : 6,
            "componentType" : 5126,
            "count" : 4,
            "type" : "VEC3"
        },
        {
            "bufferView" : 7,
            "componentType" : 5126,
            "count" : 4,
            "type" : "VEC2"
        },
        {
            "bufferView" : 8,
            "componentType" : 5123,
            "count" : 6,
            "type" : "SCALAR"
        },
        {
            "bufferView" : 9,
            "componentType" : 5126,
            "count" : 204,
            "max" : [
                1.0436718463897705,
                3.645331859588623,
                4.586361885070801
            ],
            "min" : [
                -1.0505034923553467,
                -1.1258188486099243,
                -13.042523384094238
            ],
            "type" : "VEC3"
        },
        {
            "bufferView" : 10,
            "componentType" : 5126,
            "count" : 204,
            "type" : "VEC3"
        },
        {
            "bufferView" : 11,
            "componentType" : 5126,
            "count" : 204,
            "type" : "VEC2"
        },
        {
            "bufferView" : 12,
            "componentType" : 5123,
            "count" : 318,
            "type" : "SCALAR"
        },
        {
            "bufferView" : 13,
            "componentType" : 5126,
            "count" : 4,
            "max" : [
                0.9322676062583923,
                -0.9511245489120483,
                4.578354835510254
            ],
            "min" : [
                -0.9286129474639893,
                -0.9511245489120483,
                -13.035204887390137
            ],
            "type" : "VEC3"
        },
        {
            "bufferView" : 14,
            "componentType" : 5126,
            "count" : 4,
            "type" : "VEC3"
        },
        {
            "bufferView" : 15,
            "componentType" : 5126,
            "count" : 4,
            "type" : "VEC2"
        },
        {
            "bufferView" : 16,
            "componentType" : 5123,
            "count" : 6,
            "type" : "SCALAR"
        },
        {
            "bufferView" : 18,
            "componentType" : 5126,
            "count" : 192,
            "max" : [
                0.15433792769908905,
                2.2374091148376465,
                -1.8300502300262451
            ],
            "min" : [
                -0.15114644169807434,
                -1.067447543144226,
                -7.008801460266113
            ],
            "type" : "VEC3"
        },
        {
            "bufferView" : 19,
            "componentType" : 5126,
            "count" : 192,
            "type" : "VEC3"
        },
        {
            "bufferView" : 20,
            "componentType" : 5126,
            "count" : 192,
            "type" : "VEC2"
        },
        {
            "bufferView" : 21,
            "componentType" : 5123,
            "count" : 372,
            "type" : "SCALAR"
        },
        {
            "bufferView" : 22,
            "componentType" : 5126,
            "count" : 21466,
            "max" : [
                0.8301209211349487,
                3.157820463180542,
                -11.11928653717041
            ],
            "min" : [
                -0.8502856492996216,
                2.928219795227051,
                -12.424829483032227
            ],
            "type" : "VEC3"
        },
        {
            "bufferView" : 23,
            "componentType" : 5126,
            "count" : 21466,
            "type" : "VEC3"
        },
        {
            "bufferView" : 24,
            "componentType" : 5126,
            "count" : 21466,
            "type" : "VEC2"
        },
        {
            "bufferView" : 25,
            "componentType" : 5123,
            "count" : 25812,
            "type" : "SCALAR"
        }
    ],
    "bufferViews" : [
        {
            "buffer" : 0,
            "byteLength" : 288,
            "byteOffset" : 0
        },
        {
            "buffer" : 0,
            "byteLength" : 288,
            "byteOffset" : 288
        },
        {
            "buffer" : 0,
            "byteLength" : 192,
            "byteOffset" : 576
        },
        {
            "buffer" : 0,
            "byteLength" : 72,
            "byteOffset" : 768
        },
        {
            "buffer" : 0,
            "byteLength" : 723451,
            "byteOffset" : 840
        },
        {
            "buffer" : 0,
            "byteLength" : 48,
            "byteOffset" : 724292
        },
        {
            "buffer" : 0,
            "byteLength" : 48,
            "byteOffset" : 724340
        },
        {
            "buffer" : 0,
            "byteLength" : 32,
            "byteOffset" : 724388
        },
        {
            "buffer" : 0,
            "byteLength" : 12,
            "byteOffset" : 724420
        },
        {
            "buffer" : 0,
            "byteLength" : 2448,
            "byteOffset" : 724432
        },
        {
            "buffer" : 0,
            "byteLength" : 2448,
            "byteOffset" : 726880
        },
        {
            "buffer" : 0,
            "byteLength" : 1632,
            "byteOffset" : 729328
        },
        {
            "buffer" : 0,
            "byteLength" : 636,
            "byteOffset" : 730960
        },
        {
            "buffer" : 0,
            "byteLength" : 48,
            "byteOffset" : 731596
        },
        {
            "buffer" : 0,
            "byteLength" : 48,
            "byteOffset" : 731644
        },
        {
            "buffer" : 0,
            "byteLength" : 32,
            "byteOffset" : 731692
        },
        {
            "buffer" : 0,
            "byteLength" : 12,
            "byteOffset" : 731724
        },
        {
            "buffer" : 0,
            "byteLength" : 103130,
            "byteOffset" : 731736
        },
        {
            "buffer" : 0,
            "byteLength" : 2304,
            "byteOffset" : 834868
        },
        {
            "buffer" : 0,
            "byteLength" : 2304,
            "byteOffset" : 837172
        },
        {
            "buffer" : 0,
            "byteLength" : 1536,
            "byteOffset" : 839476
        },
        {
            "buffer" : 0,
            "byteLength" : 744,
            "byteOffset" : 841012
        },
        {
            "buffer" : 0,
            "byteLength" : 257592,
            "byteOffset" : 841756
        },
        {
            "buffer" : 0,
            "byteLength" : 257592,
            "byteOffset" : 1099348
        },
        {
            "buffer" : 0,
            "byteLength" : 171728,
            "byteOffset" : 1356940
        },
        {
            "buffer" : 0,
            "byteLength" : 51624,
            "byteOffset" : 1528668
        }
    ],
    "samplers" : [
        {
            "magFilter" : 9729,
            "minFilter" : 9987
        }
    ],
    "buffers" : [
        {
            "byteLength" : 1580292,
            "uri" : "data:application/octet-stream;base64,"
        }
    ]
}
