{
    "asset" : {
        "generator" : "Khronos glTF Blender I/O v1.6.16",
        "version" : "2.0"
    },
    "scene" : 0,
    "scenes" : [
        {
            "name" : "Scene",
            "nodes" : [
                0
            ]
        }
    ],
    "nodes" : [
        {
            "mesh" : 0,
            "name" : "Cube.003",
            "rotation" : [
                0,
                0.350713849067688,
                0,
                0.9364826679229736
            ],
            "scale" : [
                0.005225491244345903,
                0.01202394999563694,
                0.06691788882017136
            ],
            "translation" : [
                6.961639404296875,
                0.7487581968307495,
                0.7142562866210938
            ]
        }
    ],
    "materials" : [
        {
            "doubleSided" : true,
            "name" : "Material.002",
            "pbrMetallicRoughness" : {
                "baseColorFactor" : [
                    0,
                    0.0031999778002500534,
                    0.017386898398399353,
                    1
                ],
                "metallicFactor" : 0.20588235557079315,
                "roughnessFactor" : 0.08088234066963196
            }
        },
        {
            "doubleSided" : true,
            "emissiveFactor" : [
                1,
                1,
                1
            ],
            "emissiveTexture" : {
                "index" : 0
            },
            "name" : "Material.007",
            "pbrMetallicRoughness" : {}
        }
    ],
    "meshes" : [
        {
            "name" : "Cube.001",
            "primitives" : [
                {
                    "attributes" : {
                        "POSITION" : 0,
                        "NORMAL" : 1,
                        "TEXCOORD_0" : 2
                    },
                    "indices" : 3,
                    "material" : 0
                },
                {
                    "attributes" : {
                        "POSITION" : 4,
                        "NORMAL" : 5,
                        "TEXCOORD_0" : 6
                    },
                    "indices" : 7,
                    "material" : 1
                }
            ]
        }
    ],
    "textures" : [
        {
            "sampler" : 0,
            "source" : 0
        }
    ],
    "images" : [
        {
            "bufferView" : 8,
            "mimeType" : "image/jpeg",
            "name" : "Screenshot 2023-10-20 220020"
        }
    ],
    "accessors" : [
        {
            "bufferView" : 0,
            "componentType" : 5126,
            "count" : 7674,
            "max" : [
                1.0318603515625,
                2.7266101837158203,
                3.054912805557251
            ],
            "min" : [
                -5.951489448547363,
                -63.10319519042969,
                -2.9239134788513184
            ],
            "type" : "VEC3"
        },
        {
            "bufferView" : 1,
            "componentType" : 5126,
            "count" : 7674,
            "type" : "VEC3"
        },
        {
            "bufferView" : 2,
            "componentType" : 5126,
            "count" : 7674,
            "type" : "VEC2"
        },
        {
            "bufferView" : 3,
            "componentType" : 5123,
            "count" : 11919,
            "type" : "SCALAR"
        },
        {
            "bufferView" : 4,
            "componentType" : 5126,
            "count" : 69,
            "max" : [
                0.5017616748809814,
                0.9980611801147461,
                2.5293631553649902
            ],
            "min" : [
                0.5010807514190674,
                -61.37464904785156,
                -2.4523167610168457
            ],
            "type" : "VEC3"
        },
        {
            "bufferView" : 5,
            "componentType" : 5126,
            "count" : 69,
            "type" : "VEC3"
        },
        {
            "bufferView" : 6,
            "componentType" : 5126,
            "count" : 69,
            "type" : "VEC2"
        },
        {
            "bufferView" : 7,
            "componentType" : 5123,
            "count" : 201,
            "type" : "SCALAR"
        }
    ],
    "bufferViews" : [
        {
            "buffer" : 0,
            "byteLength" : 92088,
            "byteOffset" : 0
        },
        {
            "buffer" : 0,
            "byteLength" : 92088,
            "byteOffset" : 92088
        },
        {
            "buffer" : 0,
            "byteLength" : 61392,
            "byteOffset" : 184176
        },
        {
            "buffer" : 0,
            "byteLength" : 23838,
            "byteOffset" : 245568
        },
        {
            "buffer" : 0,
            "byteLength" : 828,
            "byteOffset" : 269408
        },
        {
            "buffer" : 0,
            "byteLength" : 828,
            "byteOffset" : 270236
        },
        {
            "buffer" : 0,
            "byteLength" : 552,
            "byteOffset" : 271064
        },
        {
            "buffer" : 0,
            "byteLength" : 402,
            "byteOffset" : 271616
        },
        {
            "buffer" : 0,
            "byteLength" : 24030,
            "byteOffset" : 272020
        }
    ],
    "samplers" : [
        {
            "magFilter" : 9729,
            "minFilter" : 9987
        }
    ],
    "buffers" : [
        {
            "byteLength" : 296052,
            "uri" : "data:application/octet-stream;base64,"
        }
    ]
}
