{
    "asset" : {
        "generator" : "Khronos glTF Blender I/O v1.6.16",
        "version" : "2.0"
    },
    "scene" : 0,
    "scenes" : [
        {
            "name" : "Scene",
            "nodes" : [
                0
            ]
        }
    ],
    "nodes" : [
        {
            "mesh" : 0,
            "name" : "Cylinder.001",
            "rotation" : [
                0,
                -0.9813935160636902,
                0,
                0.1920071840286255
            ],
            "scale" : [
                0.33864012360572815,
                0.33864012360572815,
                0.33864012360572815
            ],
            "translation" : [
                -6.284549236297607,
                0.33008089661598206,
                -0.8262114524841309
            ]
        }
    ],
    "materials" : [
        {
            "doubleSided" : true,
            "name" : "Material.020",
            "pbrMetallicRoughness" : {
                "baseColorFactor" : [
                    0.5488496422767639,
                    0.5488496422767639,
                    0.5488496422767639,
                    1
                ],
                "metallicFactor" : 0,
                "roughnessFactor" : 0.16911765933036804
            }
        },
        {
            "alphaMode" : "BLEND",
            "doubleSided" : true,
            "name" : "Material.024",
            "pbrMetallicRoughness" : {
                "baseColorTexture" : {
                    "index" : 0
                },
                "metallicFactor" : 0,
                "roughnessFactor" : 0.23181816935539246
            }
        }
    ],
    "meshes" : [
        {
            "name" : "Cylinder.002",
            "primitives" : [
                {
                    "attributes" : {
                        "POSITION" : 0,
                        "NORMAL" : 1,
                        "TEXCOORD_0" : 2
                    },
                    "indices" : 3,
                    "material" : 0
                },
                {
                    "attributes" : {
                        "POSITION" : 4,
                        "NORMAL" : 5,
                        "TEXCOORD_0" : 6
                    },
                    "indices" : 7,
                    "material" : 1
                }
            ]
        }
    ],
    "textures" : [
        {
            "sampler" : 0,
            "source" : 0
        }
    ],
    "images" : [
        {
            "bufferView" : 8,
            "mimeType" : "image/png",
            "name" : "download"
        }
    ],
    "accessors" : [
        {
            "bufferView" : 0,
            "componentType" : 5126,
            "count" : 523,
            "max" : [
                1,
                1,
                1.296513319015503
            ],
            "min" : [
                -1.2965130805969238,
                -1,
                -1
            ],
            "type" : "VEC3"
        },
        {
            "bufferView" : 1,
            "componentType" : 5126,
            "count" : 523,
            "type" : "VEC3"
        },
        {
            "bufferView" : 2,
            "componentType" : 5126,
            "count" : 523,
            "type" : "VEC2"
        },
        {
            "bufferView" : 3,
            "componentType" : 5123,
            "count" : 1848,
            "type" : "SCALAR"
        },
        {
            "bufferView" : 4,
            "componentType" : 5126,
            "count" : 14,
            "max" : [
                0,
                0.4592422842979431,
                -0.3826836049556732
            ],
            "min" : [
                -0.9238794445991516,
                -0.44548794627189636,
                -1
            ],
            "type" : "VEC3"
        },
        {
            "bufferView" : 5,
            "componentType" : 5126,
            "count" : 14,
            "type" : "VEC3"
        },
        {
            "bufferView" : 6,
            "componentType" : 5126,
            "count" : 14,
            "type" : "VEC2"
        },
        {
            "bufferView" : 7,
            "componentType" : 5123,
            "count" : 36,
            "type" : "SCALAR"
        }
    ],
    "bufferViews" : [
        {
            "buffer" : 0,
            "byteLength" : 6276,
            "byteOffset" : 0
        },
        {
            "buffer" : 0,
            "byteLength" : 6276,
            "byteOffset" : 6276
        },
        {
            "buffer" : 0,
            "byteLength" : 4184,
            "byteOffset" : 12552
        },
        {
            "buffer" : 0,
            "byteLength" : 3696,
            "byteOffset" : 16736
        },
        {
            "buffer" : 0,
            "byteLength" : 168,
            "byteOffset" : 20432
        },
        {
            "buffer" : 0,
            "byteLength" : 168,
            "byteOffset" : 20600
        },
        {
            "buffer" : 0,
            "byteLength" : 112,
            "byteOffset" : 20768
        },
        {
            "buffer" : 0,
            "byteLength" : 72,
            "byteOffset" : 20880
        },
        {
            "buffer" : 0,
            "byteLength" : 17065,
            "byteOffset" : 20952
        }
    ],
    "samplers" : [
        {
            "magFilter" : 9729,
            "minFilter" : 9987,
            "wrapS" : 33071,
            "wrapT" : 33071
        }
    ],
    "buffers" : [
        {
            "byteLength" : 38020,
            "uri" : "data:application/octet-stream;base64,"
        }
    ]
}
