{
    "asset" : {
        "generator" : "Khronos glTF Blender I/O v1.6.16",
        "version" : "2.0"
    },
    "scene" : 0,
    "scenes" : [
        {
            "name" : "Scene",
            "nodes" : [
                0
            ]
        }
    ],
    "nodes" : [
        {
            "mesh" : 0,
            "name" : "Mouse.002",
            "rotation" : [
                0.6374461054801941,
                -0.30604326725006104,
                0.3060433268547058,
                0.6374460458755493
            ],
            "scale" : [
                0.01939825341105461,
                0.01939825341105461,
                0.01939825341105461
            ],
            "translation" : [
                1.639148235321045,
                0,
                0.4797433018684387
            ]
        }
    ],
    "materials" : [
        {
            "doubleSided" : true,
            "name" : "Material.025",
            "pbrMetallicRoughness" : {
                "baseColorFactor" : [
                    0,
                    0,
                    0,
                    1
                ],
                "metallicFactor" : 0,
                "roughnessFactor" : 0.5
            }
        },
        {
            "doubleSided" : true,
            "name" : "Material.013",
            "pbrMetallicRoughness" : {
                "metallicFactor" : 0,
                "roughnessFactor" : 0.16911764442920685
            }
        },
        {
            "doubleSided" : true,
            "emissiveFactor" : [
                1,
                1,
                1
            ],
            "emissiveTexture" : {
                "index" : 0
            },
            "name" : "Material.014",
            "pbrMetallicRoughness" : {}
        },
        {
            "doubleSided" : true,
            "name" : "Material.016",
            "pbrMetallicRoughness" : {
                "baseColorFactor" : [
                    0.5704694390296936,
                    0.4467083811759949,
                    0.1759008914232254,
                    1
                ],
                "metallicFactor" : 0
            }
        },
        {
            "doubleSided" : true,
            "name" : "Material.015",
            "pbrMetallicRoughness" : {
                "baseColorFactor" : [
                    0.18446938693523407,
                    0.18446938693523407,
                    0.18446938693523407,
                    1
                ],
                "roughnessFactor" : 0.5
            }
        },
        {
            "doubleSided" : true,
            "name" : "Material.026",
            "pbrMetallicRoughness" : {
                "baseColorFactor" : [
                    0.7742694020271301,
                    0.7742694020271301,
                    0.7742694020271301,
                    1
                ],
                "metallicFactor" : 0,
                "roughnessFactor" : 0.5
            }
        },
        {
            "doubleSided" : true,
            "name" : "Material.027",
            "pbrMetallicRoughness" : {
                "baseColorFactor" : [
                    0.12370842695236206,
                    0.12370842695236206,
                    0.12370842695236206,
                    1
                ],
                "metallicFactor" : 0,
                "roughnessFactor" : 0.5
            }
        }
    ],
    "meshes" : [
        {
            "name" : "Mouse.002",
            "primitives" : [
                {
                    "attributes" : {
                        "POSITION" : 0,
                        "NORMAL" : 1,
                        "TEXCOORD_0" : 2
                    },
                    "indices" : 3,
                    "material" : 0
                },
                {
                    "attributes" : {
                        "POSITION" : 4,
                        "NORMAL" : 5,
                        "TEXCOORD_0" : 6
                    },
                    "indices" : 7,
                    "material" : 1
                },
                {
                    "attributes" : {
                        "POSITION" : 8,
                        "NORMAL" : 9,
                        "TEXCOORD_0" : 10
                    },
                    "indices" : 11,
                    "material" : 2
                },
                {
                    "attributes" : {
                        "POSITION" : 12,
                        "NORMAL" : 13,
                        "TEXCOORD_0" : 14
                    },
                    "indices" : 15,
                    "material" : 3
                },
                {
                    "attributes" : {
                        "POSITION" : 16,
                        "NORMAL" : 17,
                        "TEXCOORD_0" : 18
                    },
                    "indices" : 19,
                    "material" : 4
                },
                {
                    "attributes" : {
                        "POSITION" : 20,
                        "NORMAL" : 21,
                        "TEXCOORD_0" : 22
                    },
                    "indices" : 23,
                    "material" : 5
                },
                {
                    "attributes" : {
                        "POSITION" : 24,
                        "NORMAL" : 25,
                        "TEXCOORD_0" : 26
                    },
                    "indices" : 27,
                    "material" : 6
                }
            ]
        }
    ],
    "textures" : [
        {
            "sampler" : 0,
            "source" : 0
        }
    ],
    "images" : [
        {
            "bufferView" : 12,
            "mimeType" : "image/png",
            "name" : "Text Mobius"
        }
    ],
    "accessors" : [
        {
            "bufferView" : 0,
            "componentType" : 5126,
            "count" : 7276,
            "max" : [
                36.648284912109375,
                10.876299858093262,
                0.5164830088615417
            ],
            "min" : [
                -48.82242202758789,
                -23.304994583129883,
                -8.788125991821289
            ],
            "type" : "VEC3"
        },
        {
            "bufferView" : 1,
            "componentType" : 5126,
            "count" : 7276,
            "type" : "VEC3"
        },
        {
            "bufferView" : 2,
            "componentType" : 5126,
            "count" : 7276,
            "type" : "VEC2"
        },
        {
            "bufferView" : 3,
            "componentType" : 5123,
            "count" : 22788,
            "type" : "SCALAR"
        },
        {
            "bufferView" : 4,
            "componentType" : 5126,
            "count" : 12811,
            "max" : [
                -10.570953369140625,
                -16.429664611816406,
                0.37056541442871094
            ],
            "min" : [
                -70.81211853027344,
                -96.65454864501953,
                -53.49943542480469
            ],
            "type" : "VEC3"
        },
        {
            "bufferView" : 5,
            "componentType" : 5126,
            "count" : 12811,
            "type" : "VEC3"
        },
        {
            "bufferView" : 6,
            "componentType" : 5126,
            "count" : 12811,
            "type" : "VEC2"
        },
        {
            "bufferView" : 7,
            "componentType" : 5123,
            "count" : 19926,
            "type" : "SCALAR"
        },
        {
            "bufferView" : 8,
            "componentType" : 5126,
            "count" : 324,
            "max" : [
                -13.092041015625,
                -32.20580291748047,
                -7.471805572509766
            ],
            "min" : [
                -32.59553527832031,
                -76.97069549560547,
                -50.77593231201172
            ],
            "type" : "VEC3"
        },
        {
            "bufferView" : 9,
            "componentType" : 5126,
            "count" : 324,
            "type" : "VEC3"
        },
        {
            "bufferView" : 10,
            "componentType" : 5126,
            "count" : 324,
            "type" : "VEC2"
        },
        {
            "bufferView" : 11,
            "componentType" : 5123,
            "count" : 486,
            "type" : "SCALAR"
        },
        {
            "bufferView" : 13,
            "componentType" : 5126,
            "count" : 6967,
            "max" : [
                -12.081977844238281,
                -15.911869049072266,
                0.37056541442871094
            ],
            "min" : [
                -78.27833557128906,
                -96.06138610839844,
                -51.30591583251953
            ],
            "type" : "VEC3"
        },
        {
            "bufferView" : 14,
            "componentType" : 5126,
            "count" : 6967,
            "type" : "VEC3"
        },
        {
            "bufferView" : 15,
            "componentType" : 5126,
            "count" : 6967,
            "type" : "VEC2"
        },
        {
            "bufferView" : 16,
            "componentType" : 5123,
            "count" : 10692,
            "type" : "SCALAR"
        },
        {
            "bufferView" : 17,
            "componentType" : 5126,
            "count" : 384,
            "max" : [
                -34.6021842956543,
                -76.54306030273438,
                -19.052091598510742
            ],
            "min" : [
                -58.77592086791992,
                -91.72074890136719,
                -42.779052734375
            ],
            "type" : "VEC3"
        },
        {
            "bufferView" : 18,
            "componentType" : 5126,
            "count" : 384,
            "type" : "VEC3"
        },
        {
            "bufferView" : 19,
            "componentType" : 5126,
            "count" : 384,
            "type" : "VEC2"
        },
        {
            "bufferView" : 20,
            "componentType" : 5123,
            "count" : 744,
            "type" : "SCALAR"
        },
        {
            "bufferView" : 21,
            "componentType" : 5126,
            "count" : 1133,
            "max" : [
                32.67603302001953,
                -3.689445972442627,
                -1.5353920459747314
            ],
            "min" : [
                30.940027236938477,
                -8.088496208190918,
                -5.323617935180664
            ],
            "type" : "VEC3"
        },
        {
            "bufferView" : 22,
            "componentType" : 5126,
            "count" : 1133,
            "type" : "VEC3"
        },
        {
            "bufferView" : 23,
            "componentType" : 5126,
            "count" : 1133,
            "type" : "VEC2"
        },
        {
            "bufferView" : 24,
            "componentType" : 5123,
            "count" : 4440,
            "type" : "SCALAR"
        },
        {
            "bufferView" : 25,
            "componentType" : 5126,
            "count" : 1346,
            "max" : [
                36.609310150146484,
                10.790509223937988,
                0.18199700117111206
            ],
            "min" : [
                26.865135192871094,
                -9.47125244140625,
                -5.709071159362793
            ],
            "type" : "VEC3"
        },
        {
            "bufferView" : 26,
            "componentType" : 5126,
            "count" : 1346,
            "type" : "VEC3"
        },
        {
            "bufferView" : 27,
            "componentType" : 5126,
            "count" : 1346,
            "type" : "VEC2"
        },
        {
            "bufferView" : 28,
            "componentType" : 5123,
            "count" : 3312,
            "type" : "SCALAR"
        }
    ],
    "bufferViews" : [
        {
            "buffer" : 0,
            "byteLength" : 87312,
            "byteOffset" : 0
        },
        {
            "buffer" : 0,
            "byteLength" : 87312,
            "byteOffset" : 87312
        },
        {
            "buffer" : 0,
            "byteLength" : 58208,
            "byteOffset" : 174624
        },
        {
            "buffer" : 0,
            "byteLength" : 45576,
            "byteOffset" : 232832
        },
        {
            "buffer" : 0,
            "byteLength" : 153732,
            "byteOffset" : 278408
        },
        {
            "buffer" : 0,
            "byteLength" : 153732,
            "byteOffset" : 432140
        },
        {
            "buffer" : 0,
            "byteLength" : 102488,
            "byteOffset" : 585872
        },
        {
            "buffer" : 0,
            "byteLength" : 39852,
            "byteOffset" : 688360
        },
        {
            "buffer" : 0,
            "byteLength" : 3888,
            "byteOffset" : 728212
        },
        {
            "buffer" : 0,
            "byteLength" : 3888,
            "byteOffset" : 732100
        },
        {
            "buffer" : 0,
            "byteLength" : 2592,
            "byteOffset" : 735988
        },
        {
            "buffer" : 0,
            "byteLength" : 972,
            "byteOffset" : 738580
        },
        {
            "buffer" : 0,
            "byteLength" : 850759,
            "byteOffset" : 739552
        },
        {
            "buffer" : 0,
            "byteLength" : 83604,
            "byteOffset" : 1590312
        },
        {
            "buffer" : 0,
            "byteLength" : 83604,
            "byteOffset" : 1673916
        },
        {
            "buffer" : 0,
            "byteLength" : 55736,
            "byteOffset" : 1757520
        },
        {
            "buffer" : 0,
            "byteLength" : 21384,
            "byteOffset" : 1813256
        },
        {
            "buffer" : 0,
            "byteLength" : 4608,
            "byteOffset" : 1834640
        },
        {
            "buffer" : 0,
            "byteLength" : 4608,
            "byteOffset" : 1839248
        },
        {
            "buffer" : 0,
            "byteLength" : 3072,
            "byteOffset" : 1843856
        },
        {
            "buffer" : 0,
            "byteLength" : 1488,
            "byteOffset" : 1846928
        },
        {
            "buffer" : 0,
            "byteLength" : 13596,
            "byteOffset" : 1848416
        },
        {
            "buffer" : 0,
            "byteLength" : 13596,
            "byteOffset" : 1862012
        },
        {
            "buffer" : 0,
            "byteLength" : 9064,
            "byteOffset" : 1875608
        },
        {
            "buffer" : 0,
            "byteLength" : 8880,
            "byteOffset" : 1884672
        },
        {
            "buffer" : 0,
            "byteLength" : 16152,
            "byteOffset" : 1893552
        },
        {
            "buffer" : 0,
            "byteLength" : 16152,
            "byteOffset" : 1909704
        },
        {
            "buffer" : 0,
            "byteLength" : 10768,
            "byteOffset" : 1925856
        },
        {
            "buffer" : 0,
            "byteLength" : 6624,
            "byteOffset" : 1936624
        }
    ],
    "samplers" : [
        {
            "magFilter" : 9729,
            "minFilter" : 9987,
            "wrapS" : 33071,
            "wrapT" : 33071
        }
    ],
    "buffers" : [
        {
            "byteLength" : 1943248,
            "uri" : "data:application/octet-stream;base64,"
        }
    ]
}
